<svg xmlns="http://www.w3.org/2000/svg" xmlns:xlink="http://www.w3.org/1999/xlink" version="1.1" width="256" height="256" viewBox="0 0 256 256" xml:space="preserve">

<defs>
</defs>
<g style="stroke: none; stroke-width: 0; stroke-dasharray: none; stroke-linecap: butt; stroke-linejoin: miter; stroke-miterlimit: 10; fill: none; fill-rule: nonzero; opacity: 1;" transform="translate(1.4065934065934016 1.4065934065934016) scale(2.81 2.81)" >
	<polyline points="39.94,34.44 1,20.18 1,69.54 39.94,83.8 39.94,34.44 " style="stroke: none; stroke-width: 1; stroke-dasharray: none; stroke-linecap: butt; stroke-linejoin: miter; stroke-miterlimit: 10; fill: rgb(255,255,255); fill-rule: nonzero; opacity: 1;" transform="  matrix(1 0 0 1 0 0) "/>
	<polyline points="39.94,34.44 78.87,20.18 78.87,69.54 39.94,83.8 39.94,34.44 " style="stroke: none; stroke-width: 1; stroke-dasharray: none; stroke-linecap: butt; stroke-linejoin: miter; stroke-miterlimit: 10; fill: rgb(255,255,255); fill-rule: nonzero; opacity: 1;" transform="  matrix(1 0 0 1 0 0) "/>
	<polygon points="78.87,20.18 39.94,5.92 1,20.18 39.94,34.44 " style="stroke: none; stroke-width: 1; stroke-dasharray: none; stroke-linecap: butt; stroke-linejoin: miter; stroke-miterlimit: 10; fill: rgb(255,255,255); fill-rule: nonzero; opacity: 1;" transform="  matrix(1 0 0 1 0 0) "/>
	<path d="M 39.936 84.798 c -0.116 0 -0.232 -0.021 -0.344 -0.061 L 0.656 70.478 C 0.262 70.333 0 69.958 0 69.538 V 20.184 c 0 -0.327 0.16 -0.633 0.427 -0.82 c 0.269 -0.186 0.611 -0.231 0.917 -0.119 L 40.28 33.504 c 0.394 0.144 0.656 0.52 0.656 0.939 v 49.354 c 0 0.326 -0.16 0.633 -0.427 0.819 C 40.338 84.736 40.138 84.798 39.936 84.798 z M 2 68.84 l 36.936 13.526 V 35.142 L 2 21.615 V 68.84 z" style="stroke: none; stroke-width: 1; stroke-dasharray: none; stroke-linecap: butt; stroke-linejoin: miter; stroke-miterlimit: 10; fill: rgb(236,220,255); fill-rule: nonzero; opacity: 1;" transform=" matrix(1 0 0 1 0 0) " stroke-linecap="round" />
	<path d="M 39.936 84.798 c -0.202 0 -0.402 -0.062 -0.573 -0.181 c -0.268 -0.187 -0.427 -0.493 -0.427 -0.819 V 34.443 c 0 -0.419 0.262 -0.795 0.656 -0.939 l 38.936 -14.259 c 0.305 -0.112 0.647 -0.068 0.917 0.119 c 0.268 0.187 0.427 0.493 0.427 0.82 v 49.354 c 0 0.42 -0.262 0.795 -0.656 0.939 L 40.28 84.737 C 40.168 84.777 40.052 84.798 39.936 84.798 z M 40.936 35.142 v 47.224 L 77.872 68.84 V 21.615 L 40.936 35.142 z" style="stroke: none; stroke-width: 1; stroke-dasharray: none; stroke-linecap: butt; stroke-linejoin: miter; stroke-miterlimit: 10; fill: rgb(236,220,255); fill-rule: nonzero; opacity: 1;" transform=" matrix(1 0 0 1 0 0) " stroke-linecap="round" />
	<path d="M 39.936 35.443 c -0.116 0 -0.233 -0.021 -0.344 -0.061 L 0.656 21.123 C 0.262 20.979 0 20.604 0 20.184 s 0.262 -0.795 0.656 -0.939 L 39.592 4.986 c 0.222 -0.081 0.466 -0.081 0.688 0 l 38.936 14.259 c 0.395 0.144 0.656 0.52 0.656 0.939 s -0.262 0.795 -0.656 0.939 L 40.28 35.382 C 40.169 35.423 40.052 35.443 39.936 35.443 z M 3.908 20.184 l 36.028 13.194 l 36.028 -13.194 L 39.936 6.99 L 3.908 20.184 z" style="stroke: none; stroke-width: 1; stroke-dasharray: none; stroke-linecap: butt; stroke-linejoin: miter; stroke-miterlimit: 10; fill: rgb(236,220,255); fill-rule: nonzero; opacity: 1;" transform=" matrix(1 0 0 1 0 0) " stroke-linecap="round" />
	<path d="M 19.484 41.346 c -0.552 0 -1 -0.448 -1 -1 V 26.954 c 0 -0.421 0.264 -0.798 0.661 -0.941 l 39.247 -14.145 c 0.518 -0.186 1.093 0.082 1.279 0.602 c 0.188 0.52 -0.082 1.092 -0.602 1.28 L 20.484 27.656 v 12.69 C 20.484 40.898 20.037 41.346 19.484 41.346 z" style="stroke: none; stroke-width: 1; stroke-dasharray: none; stroke-linecap: butt; stroke-linejoin: miter; stroke-miterlimit: 10; fill: rgb(236,220,255); fill-rule: nonzero; opacity: 1;" transform=" matrix(1 0 0 1 0 0) " stroke-linecap="round" />
	<circle cx="70.299" cy="65.379" r="18.699" style="stroke: none; stroke-width: 1; stroke-dasharray: none; stroke-linecap: butt; stroke-linejoin: miter; stroke-miterlimit: 10; fill: rgb(255,255,255); fill-rule: nonzero; opacity: 1;" transform="  matrix(1 0 0 1 0 0) "/>
	<path d="M 67.11 72.757 c -0.256 0 -0.512 -0.098 -0.707 -0.293 l -6.381 -6.381 c -0.391 -0.391 -0.391 -1.023 0 -1.414 s 1.023 -0.391 1.414 0 l 5.674 5.674 l 12.056 -12.055 c 0.391 -0.391 1.023 -0.391 1.414 0 s 0.391 1.023 0 1.414 L 67.817 72.464 C 67.622 72.659 67.366 72.757 67.11 72.757 z" style="stroke: none; stroke-width: 1; stroke-dasharray: none; stroke-linecap: butt; stroke-linejoin: miter; stroke-miterlimit: 10; fill: rgb(236,220,255); fill-rule: nonzero; opacity: 1;" transform=" matrix(1 0 0 1 0 0) " stroke-linecap="round" />
	<path d="M 70.301 85.075 c -10.861 0 -19.698 -8.837 -19.698 -19.699 s 8.837 -19.699 19.698 -19.699 C 81.163 45.677 90 54.514 90 65.376 S 81.163 85.075 70.301 85.075 z M 70.301 47.677 c -9.759 0 -17.698 7.939 -17.698 17.699 s 7.939 17.699 17.698 17.699 c 9.76 0 17.699 -7.939 17.699 -17.699 S 80.061 47.677 70.301 47.677 z" style="stroke: none; stroke-width: 1; stroke-dasharray: none; stroke-linecap: butt; stroke-linejoin: miter; stroke-miterlimit: 10; fill: rgb(236,220,255); fill-rule: nonzero; opacity: 1;" transform=" matrix(1 0 0 1 0 0) " stroke-linecap="round" />
</g>
</svg>