<svg xmlns="http://www.w3.org/2000/svg" xmlns:xlink="http://www.w3.org/1999/xlink" version="1.1" width="256" height="256" viewBox="0 0 256 256" xml:space="preserve">

<defs>
</defs>
<g style="stroke: none; stroke-width: 0; stroke-dasharray: none; stroke-linecap: butt; stroke-linejoin: miter; stroke-miterlimit: 10; fill: none; fill-rule: nonzero; opacity: 1;" transform="translate(1.4065934065934016 1.4065934065934016) scale(2.81 2.81)" >
	<path d="M 45 65.125 c -4.717 0 -8.554 -3.837 -8.554 -8.554 V 53.27 c 0 -4.717 3.837 -8.555 8.554 -8.555 s 8.555 3.838 8.555 8.555 v 3.302 C 53.555 61.288 49.717 65.125 45 65.125 z M 45 48.715 c -2.511 0 -4.554 2.043 -4.554 4.555 v 3.302 c 0 2.511 2.043 4.554 4.554 4.554 c 2.512 0 4.555 -2.043 4.555 -4.554 V 53.27 C 49.555 50.758 47.512 48.715 45 48.715 z" style="stroke: none; stroke-width: 1; stroke-dasharray: none; stroke-linecap: butt; stroke-linejoin: miter; stroke-miterlimit: 10; fill: rgb(0,0,0); fill-rule: nonzero; opacity: 1;" transform=" matrix(1 0 0 1 0 0) " stroke-linecap="round" />
	<path d="M 55.606 79.055 H 34.394 c -1.104 0 -2 -0.896 -2 -2 v -5.527 c 0 -5.736 4.667 -10.402 10.402 -10.402 h 4.408 c 5.736 0 10.402 4.666 10.402 10.402 v 5.527 C 57.606 78.159 56.711 79.055 55.606 79.055 z M 36.394 75.055 h 17.213 v -3.527 c 0 -3.53 -2.872 -6.402 -6.402 -6.402 h -4.408 c -3.53 0 -6.402 2.872 -6.402 6.402 V 75.055 z" style="stroke: none; stroke-width: 1; stroke-dasharray: none; stroke-linecap: butt; stroke-linejoin: miter; stroke-miterlimit: 10; fill: rgb(0,0,0); fill-rule: nonzero; opacity: 1;" transform=" matrix(1 0 0 1 0 0) " stroke-linecap="round" />
	<path d="M 69.629 90 H 20.371 c -4.524 0 -8.205 -3.681 -8.205 -8.205 V 41.899 c 0 -4.524 3.681 -8.205 8.205 -8.205 h 49.258 c 4.524 0 8.205 3.681 8.205 8.205 v 39.896 C 77.834 86.319 74.153 90 69.629 90 z M 20.371 37.694 c -2.319 0 -4.205 1.886 -4.205 4.205 v 39.896 c 0 2.318 1.886 4.205 4.205 4.205 h 49.258 c 2.318 0 4.205 -1.887 4.205 -4.205 V 41.899 c 0 -2.319 -1.887 -4.205 -4.205 -4.205 H 20.371 z" style="stroke: none; stroke-width: 1; stroke-dasharray: none; stroke-linecap: butt; stroke-linejoin: miter; stroke-miterlimit: 10; fill: rgb(0,0,0); fill-rule: nonzero; opacity: 1;" transform=" matrix(1 0 0 1 0 0) " stroke-linecap="round" />
	<path d="M 65.985 37.694 c -1.104 0 -2 -0.896 -2 -2 V 21.259 C 63.985 11.743 56.242 4 46.726 4 h -3.451 c -9.517 0 -17.259 7.743 -17.259 17.259 v 14.435 c 0 1.104 -0.896 2 -2 2 s -2 -0.896 -2 -2 V 21.259 C 22.015 9.537 31.552 0 43.274 0 h 3.451 c 11.723 0 21.26 9.537 21.26 21.259 v 14.435 C 67.985 36.799 67.09 37.694 65.985 37.694 z" style="stroke: none; stroke-width: 1; stroke-dasharray: none; stroke-linecap: butt; stroke-linejoin: miter; stroke-miterlimit: 10; fill: rgb(0,0,0); fill-rule: nonzero; opacity: 1;" transform=" matrix(1 0 0 1 0 0) " stroke-linecap="round" />
</g>
</svg>