<svg xmlns="http://www.w3.org/2000/svg" xmlns:xlink="http://www.w3.org/1999/xlink" version="1.1" width="256" height="256" viewBox="0 0 256 256" xml:space="preserve">

<defs>
</defs>
<g style="stroke: none; stroke-width: 0; stroke-dasharray: none; stroke-linecap: butt; stroke-linejoin: miter; stroke-miterlimit: 10; fill: none; fill-rule: nonzero; opacity: 1;" transform="translate(1.4065934065934016 1.4065934065934016) scale(2.81 2.81)" >
	<path d="M 45 0 C 20.187 0 0 20.187 0 45 c 0 24.813 20.187 45 45 45 c 24.813 0 45 -20.187 45 -45 C 90 20.187 69.813 0 45 0 z M 45 84 C 23.495 84 6 66.505 6 45 S 23.495 6 45 6 s 39 17.495 39 39 S 66.505 84 45 84 z" style="stroke: none; stroke-width: 1; stroke-dasharray: none; stroke-linecap: butt; stroke-linejoin: miter; stroke-miterlimit: 10; fill: rgb(0,0,0); fill-rule: nonzero; opacity: 1;" transform=" matrix(1 0 0 1 0 0) " stroke-linecap="round" />
	<path d="M 42.978 37.368 c 0 -5.834 -4.747 -10.581 -10.581 -10.581 H 24 c -1.657 0 -3 1.343 -3 3 v 15.161 c 0 0.009 0.003 0.017 0.003 0.026 C 21.003 44.983 21 44.991 21 45 v 15.161 c 0 1.657 1.343 3 3 3 s 3 -1.343 3 -3 V 48.163 l 10.597 13.823 c 0.591 0.771 1.482 1.175 2.383 1.175 c 0.637 0 1.279 -0.202 1.823 -0.619 c 1.315 -1.008 1.564 -2.892 0.556 -4.206 l -8.097 -10.562 C 39.208 46.889 42.978 42.565 42.978 37.368 z M 32.397 41.948 H 27 v -9.161 h 5.397 c 2.526 0 4.581 2.055 4.581 4.581 C 36.978 39.894 34.923 41.948 32.397 41.948 z" style="stroke: none; stroke-width: 1; stroke-dasharray: none; stroke-linecap: butt; stroke-linejoin: miter; stroke-miterlimit: 10; fill: rgb(0,0,0); fill-rule: nonzero; opacity: 1;" transform=" matrix(1 0 0 1 0 0) " stroke-linecap="round" />
	<path d="M 68.235 49.013 c -1.265 -3.012 -3.91 -5.257 -7.271 -6.188 v -9.34 c 1.016 0.514 1.847 1.294 2.271 2.3 c 0.643 1.528 2.4 2.247 3.928 1.604 c 1.527 -0.642 2.245 -2.4 1.604 -3.928 c -1.362 -3.243 -4.356 -5.508 -7.802 -6.312 v -1.891 c 0 -1.657 -1.343 -3 -3 -3 s -3 1.343 -3 3 v 2.015 c -0.2 0.055 -0.402 0.103 -0.601 0.17 c -2.959 0.99 -5.351 3.094 -6.563 5.771 c -1.128 2.493 -1.166 5.253 -0.107 7.774 c 1.265 3.011 3.91 5.257 7.271 6.188 v 9.34 c -1.016 -0.514 -1.847 -1.294 -2.27 -2.3 c -0.642 -1.527 -2.398 -2.243 -3.928 -1.604 c -1.527 0.642 -2.245 2.4 -1.604 3.928 c 1.362 3.243 4.357 5.506 7.801 6.31 v 1.893 c 0 1.657 1.343 3 3 3 s 3 -1.343 3 -3 v -2.011 c 0.201 -0.056 0.402 -0.107 0.601 -0.174 c 2.959 -0.99 5.352 -3.094 6.563 -5.771 C 69.256 54.294 69.294 51.533 68.235 49.013 z M 53.225 38.663 c -0.519 -1.235 -0.264 -2.3 0.043 -2.976 c 0.343 -0.759 0.946 -1.403 1.696 -1.898 v 6.895 C 54.173 40.171 53.567 39.479 53.225 38.663 z M 62.661 54.313 c -0.343 0.759 -0.947 1.403 -1.697 1.899 v -6.887 c 0.79 0.516 1.403 1.211 1.74 2.013 C 63.223 52.572 62.967 53.637 62.661 54.313 z" style="stroke: none; stroke-width: 1; stroke-dasharray: none; stroke-linecap: butt; stroke-linejoin: miter; stroke-miterlimit: 10; fill: rgb(0,0,0); fill-rule: nonzero; opacity: 1;" transform=" matrix(1 0 0 1 0 0) " stroke-linecap="round" />
</g>
</svg>